# Blender v2.79 (sub 0) OBJ File: 'MammothChassie.blend'
# www.blender.org
mtllib MammothChassie.mtl
o Chassis_Cube
v 0.473173 -0.473173 -0.473173
v 0.473173 -0.473173 0.473173
v -0.473173 -0.473173 0.473173
v -0.473173 -0.473173 -0.473173
v 0.473173 0.473173 -0.473173
v 0.473173 0.473173 0.473173
v -0.473173 0.473173 0.473173
v -0.577608 -0.067782 0.202547
vn 0.0000 -1.0000 0.0000
vn -0.3543 0.8654 -0.3543
vn 1.0000 -0.0000 0.0000
vn -0.0000 -0.0000 1.0000
vn -0.9770 -0.1509 0.1509
vn -0.3880 0.3880 -0.8360
usemtl Material
s off
f 1//1 2//1 3//1 4//1
f 5//2 8//2 7//2 6//2
f 1//3 5//3 6//3 2//3
f 2//4 6//4 7//4 3//4
f 3//5 7//5 8//5 4//5
f 5//6 1//6 4//6 8//6
